<?xml version="1.0" standalone="no"?><!DOCTYPE svg PUBLIC "-//W3C//DTD SVG 1.1//EN" "http://www.w3.org/Graphics/SVG/1.1/DTD/svg11.dtd"><svg t="1620896334126" class="icon" viewBox="0 0 1024 1024" version="1.1" xmlns="http://www.w3.org/2000/svg" p-id="11922" xmlns:xlink="http://www.w3.org/1999/xlink" width="200" height="200"><defs><style type="text/css"></style></defs><path d="M642.629 224.646c13.728 22.4 21.643 48.747 21.643 76.941v18.797h0.094-162.409V154.125h14.853c33.268 0 63.963 11.019 88.637 29.605m58.919 519.886H501.957v166.259h14.853c81.437 0 147.462-66.024 147.462-147.456v-18.803h0.094z m0 0" fill="#E7402E" p-id="11923"></path><path d="M516.81 884.875h-14.853c-8.284 0-15-6.716-15-15V703.616c0-8.284 6.716-15 15-15h162.408c8.284 0 15 6.716 15 15 0 0.573-0.032 1.139-0.095 1.695v17.108c0.001 89.578-72.879 162.456-162.46 162.456z m0.148-166.259v136.259c72.972-0.08 132.313-59.468 132.313-132.456v-3.803H516.958z m147.408-383.232H501.958c-8.284 0-15-6.716-15-15V154.125c0-8.284 6.716-15 15-15h14.853c35.558 0 69.328 11.281 97.662 32.625 6.617 4.984 7.94 14.389 2.956 21.006-4.985 6.616-14.388 7.94-21.007 2.956-23.05-17.363-50.525-26.555-79.464-26.586v136.259h132.313v-3.797c0-24.465-6.72-48.361-19.432-69.103-4.329-7.063-2.112-16.299 4.951-20.627 7.064-4.329 16.299-2.112 20.627 4.951 15.605 25.462 23.854 54.778 23.854 84.779v17.102c0.063 0.557 0.095 1.122 0.095 1.695 0 8.283-6.716 14.999-15 14.999z" fill="#3D100B" p-id="11924"></path><path d="M730.15 290.115c-48.306-20.998-103.935-32.272-164.644-32.272-161.673 0-297.489 82.902-333.987 194.232h-15.497l-38.791-72.907v0.551c-6.784-12.654-19.994-21.462-35.307-21.462-22.097 0-40.165 18.068-40.165 40.17v226.968c0 22.097 18.068 40.165 40.165 40.165 15.313 0 28.523-8.804 35.307-21.458v0.551l38.791-72.907h15.497c36.498 111.33 172.407 194.232 333.987 194.232 199.64 0 307.576-121.602 342.243-235.866 1.558-1.742 5.593-5.135 9.17-7.702 3.3-2.387 5.32-6.237 5.32-10.366 0.09-4.034-1.836-7.885-5.047-10.451-3.578-2.753-7.701-6.511-9.26-8.346-19.986-73.112-63.112-132.263-122.91-172.984" fill="#E7402E" p-id="11925"></path><path d="M565.507 780.978c-40.811 0-80.863-5.11-119.048-15.189-37.021-9.772-71.498-23.99-102.472-42.257-57.384-33.843-99.927-80.429-121.289-132.397L190.473 651.7a15.132 15.132 0 0 1-1.986 2.872c-10.125 16.125-27.631 25.989-46.563 25.989-30.419 0-55.166-24.747-55.166-55.165V398.427c0-30.421 24.747-55.17 55.166-55.17 18.93 0 36.436 9.866 46.562 25.993 0.76 0.862 1.429 1.823 1.987 2.872l32.225 60.565c21.362-51.975 63.893-98.561 121.253-132.396 30.969-18.269 65.444-32.486 102.469-42.258 38.188-10.079 78.255-15.189 119.087-15.189 62.057 0 119.463 11.276 170.623 33.515 7.598 3.302 11.08 12.139 7.777 19.736-3.303 7.597-12.14 11.08-19.736 7.776-47.364-20.588-100.746-31.028-158.664-31.028-152.756 0-284.235 75.625-319.733 183.905a15.002 15.002 0 0 1-14.254 10.327h-15.497a15 15 0 0 1-13.242-7.954l-37.256-70.022a15.13 15.13 0 0 1-1.514-2.292c-4.479-8.357-12.942-13.549-22.086-13.549-13.877 0-25.166 11.291-25.166 25.17v226.968c0 13.876 11.289 25.165 25.166 25.165 9.145 0 17.608-5.19 22.086-13.544a14.94 14.94 0 0 1 1.514-2.293l37.256-70.022a15 15 0 0 1 13.242-7.954h15.497a15.002 15.002 0 0 1 14.254 10.327c16.695 50.927 56.987 97.314 113.454 130.617 58.265 34.363 131.522 53.287 206.279 53.287 191.371 0 294.854-116.342 327.889-225.22a14.978 14.978 0 0 1 3.17-5.641c2.203-2.465 6.005-5.678 9.418-8.272-3.4-2.777-7.304-6.319-9.483-8.886a14.99 14.99 0 0 1-3.036-5.755c-18.667-68.283-59.085-125.181-116.885-164.541-6.847-4.663-8.618-13.994-3.955-20.841 4.663-6.848 13.992-8.619 20.842-3.955 62.691 42.691 106.84 104.042 127.865 177.599a77.558 77.558 0 0 0 5.009 4.242c0.072 0.056 0.145 0.112 0.216 0.169 6.834 5.46 10.819 13.798 10.683 22.335-0.053 8.82-4.354 17.167-11.53 22.356a76.75 76.75 0 0 0-4.802 3.76c-37.404 118.039-149.871 242.649-355.401 242.649z" fill="#3D100B" p-id="11926"></path><path d="M433.085 637.409c3.761 6.143 1.836 14.122-4.218 17.973-2.108 1.28-4.491 1.926-6.784 1.926-4.401 0-8.619-2.203-11.095-6.237-25.681-41.635-39.252-89.686-39.252-139.115 0-50.165 14.033-98.949 40.443-141.134 3.85-6.049 11.83-7.885 17.973-4.124 6.055 3.852 7.885 11.831 4.124 17.974-23.84 37.962-36.498 81.984-36.498 127.19 0 44.661 12.198 88.037 35.307 125.547zM532.952 669.138a12.93 12.93 0 0 1-3.578 18.063 13.146 13.146 0 0 1-7.245 2.203c-4.218 0-8.343-2.02-10.819-5.776-34.483-51.356-52.73-110.597-52.73-171.489 0-61.9 18.798-122.058 54.378-173.964 4.034-5.961 12.197-7.429 18.157-3.39 5.964 4.034 7.428 12.192 3.394 18.156-32.648 47.501-49.887 102.617-49.887 159.198 0.002 55.757 16.691 110.045 48.33 156.999zM883.265 521.309c-20.45 68.501-69.79 139.938-152.597 181.757-55.941-47.867-90.881-115.821-90.881-191.111 0-75.839 35.397-144.067 91.983-192.122 75.194 36.591 129.392 99.499 151.401 181.483 0.367 1.374 1.285 4.769 6.326 10.272-4.858 5.225-5.776 8.253-6.232 9.721z" fill="#F4DD50" p-id="11927"></path><path d="M763.771 497.426a39.983 39.983 0 0 1-19.972-5.353c-12.315-7.105-19.969-20.36-19.969-34.589 0-14.227 7.653-27.482 19.973-34.593 6.059-3.499 12.965-5.35 19.968-5.35s13.909 1.851 19.972 5.353c12.318 7.109 19.974 20.364 19.974 34.59 0 14.227-7.655 27.482-19.979 34.593a39.988 39.988 0 0 1-19.967 5.349z m0-49.885a9.94 9.94 0 0 0-4.967 1.331 9.97 9.97 0 0 0-4.974 8.612 9.961 9.961 0 0 0 4.967 8.607c3.027 1.748 6.926 1.744 9.941 0.004a9.97 9.97 0 0 0 4.978-8.611 9.97 9.97 0 0 0-4.974-8.61 9.957 9.957 0 0 0-4.971-1.333z" fill="#3D100B" p-id="11928"></path><path d="M569.425 728.979c-44.89 0-88.063-7.102-127.032-21.063-7.799-2.794-11.856-11.381-9.063-19.18 2.794-7.798 11.379-11.857 19.18-9.063 49.916 17.882 107.626 23.487 166.892 16.214 8.224-1.006 15.706 4.838 16.716 13.061 1.009 8.223-4.839 15.706-13.062 16.715-18.04 2.217-35.97 3.316-53.631 3.316zM683.57 713.591c-6.617 0-12.675-4.413-14.476-11.108-2.151-8 2.59-16.229 10.59-18.381a455.3 455.3 0 0 0 25.541-7.683c7.864-2.619 16.354 1.632 18.972 9.492 2.618 7.86-1.632 16.354-9.491 18.971a485.882 485.882 0 0 1-27.23 8.191c-1.305 0.35-2.617 0.518-3.906 0.518z" fill="#FFFFFF" p-id="11929"></path></svg>