<?xml version="1.0" standalone="no"?><!DOCTYPE svg PUBLIC "-//W3C//DTD SVG 1.1//EN" "http://www.w3.org/Graphics/SVG/1.1/DTD/svg11.dtd"><svg t="1620896259122" class="icon" viewBox="0 0 1024 1024" version="1.1" xmlns="http://www.w3.org/2000/svg" p-id="5068" xmlns:xlink="http://www.w3.org/1999/xlink" width="200" height="200"><defs><style type="text/css"></style></defs><path d="M 499.3 308.5 c -55.9 5.2 -86.9 22.1 -137.3 56.2 c -5.7 3.9 -13 4 -18.8 0.2 c -55.5 -36.1 -118 -58.9 -184.4 -64.8 c -12.4 -1.1 -22.1 11.8 -19.1 25.2 c 14.4 64.3 38.5 123.8 70.4 176.4 c 4.2 6.9 4.2 15.8 0 22.7 c -31.8 52.5 -56 112.1 -70.4 176.3 c -3 13.4 6.7 26.3 19.1 25.2 c 66.5 -5.9 129 -28.7 184.6 -64.8 c 5.7 -3.7 12.7 -3.7 18.4 0 c 62.3 40.5 133.4 64.3 209 66.2 c 3.3 0.1 6.6 0.1 10 0.1 c 143.7 0 271.9 -78.9 355.6 -202.1 c 4.9 -7.2 4.9 -17.3 0 -24.5 C 870.7 404 777.6 334.5 671 309.2 c -2.1 -0.5 -4 -1.4 -5.8 -2.6 c -14.6 -10.2 -86.1 -59 -139.4 -74.8 c -15.6 -4.6 -28.5 14.1 -20.5 29.7 l 8.5 16.6 c 6.5 13 -1.2 29.1 -14.5 30.4 Z" fill="#6689e2" p-id="5069"></path><path d="M 786.9 463.9 a 25 27.8 0 1 0 50 0 a 25 27.8 0 1 0 -50 0 Z" fill="#e2ddd5" p-id="5070"></path><path d="M 811.9 504.2 c -20 0 -36.3 -18.1 -36.3 -40.3 s 16.3 -40.3 36.3 -40.3 s 36.3 18.1 36.3 40.3 s -16.3 40.3 -36.3 40.3 Z m 0 -55.6 c -7.6 0 -13.7 6.8 -13.7 15.3 s 6.2 15.3 13.7 15.3 c 7.6 0 13.7 -6.8 13.7 -15.3 s -6.2 -15.3 -13.7 -15.3 Z" fill="#ffffff" p-id="5071"></path><path d="M 431.4 697.7 s 237.7 -145.3 355.4 -29 c 0 0 -166.3 113.5 -355.4 29 Z" fill="#e6e8ed" p-id="5072"></path><path d="M 530.7 234 c 2.4 0 4.8 0.4 7.3 1.3 c 56.6 20.7 126.1 70 129.6 72.4 c 0.1 0.1 0.2 0.1 0.3 0.1 C 772.3 331.8 864.1 398 930 491 c 8.9 12.5 8.9 30.3 0 42.8 c -83.7 118 -209.1 193 -349.2 193 c -3.3 0 -6.7 0 -10 -0.1 c -79 -2 -153.1 -27.9 -217.4 -71.8 c -0.3 -0.2 -0.6 -0.3 -0.9 -0.3 c -0.3 0 -0.6 0.1 -0.9 0.3 c -56.7 38.7 -121 63.4 -189.6 70.1 c -0.6 0.1 -1.2 0.1 -1.8 0.1 c -13.2 0 -23.1 -13.9 -19.7 -28.4 c 15.5 -67.3 41.6 -129.4 76.2 -183.5 c 0.3 -0.4 0.3 -1 0 -1.4 C 181.8 457 155.4 394 140 325.7 c -3 -13.3 6.2 -26.1 18.2 -26.1 c 0.5 0 1 0 1.6 0.1 c 69.5 6.3 134.7 31.1 192 70.3 c 0.3 0.2 0.6 0.3 0.9 0.3 c 0.3 0 0.6 -0.1 0.9 -0.3 c 63.5 -43.5 95.2 -61.4 172.9 -63.6 c 0.9 0 1.4 -1 1 -1.9 L 511 272.3 c -9 -17.7 3.2 -38.3 19.7 -38.3 m 0 -25 c -15.9 0 -30.9 9.7 -39.1 25.3 c -8.1 15.4 -8.3 33.7 -0.7 49.4 c -54.6 6.1 -87.9 23.6 -138.4 57.7 c -59.2 -38.1 -123.4 -60.5 -190.9 -66.6 c -1.1 -0.1 -2.3 -0.2 -3.4 -0.2 c -12.8 0 -24.6 6.5 -32.5 17.7 c -7.9 11.3 -10.7 25.7 -7.5 39.5 c 14.7 65 38.8 125.7 71.7 180.7 c -32.5 54.1 -56.4 113.9 -71.1 178 c -3.3 14.5 -0.5 29.5 7.7 41.2 c 8.2 11.7 20.6 18.5 33.9 18.5 c 1.3 0 2.5 -0.1 3.8 -0.2 c 66.7 -6.5 130 -28.8 188.6 -66.4 c 66.6 42.8 141.6 66.3 217.7 68.2 c 3.2 0.1 6.7 0.1 10.5 0.1 c 141.9 0 275.6 -73.8 366.9 -202.5 c 15.4 -21.7 15.4 -52.1 0 -73.8 c -69.6 -98.2 -165.9 -166 -271.3 -191.3 c -16.3 -11.3 -78.1 -53.3 -131.3 -72.8 c -4.9 -1.6 -9.7 -2.5 -14.6 -2.5 Z" fill="#231815" p-id="5073"></path></svg>