<?xml version="1.0" standalone="no"?><!DOCTYPE svg PUBLIC "-//W3C//DTD SVG 1.1//EN" "http://www.w3.org/Graphics/SVG/1.1/DTD/svg11.dtd"><svg t="1620896303274" class="icon" viewBox="0 0 1024 1024" version="1.1" xmlns="http://www.w3.org/2000/svg" p-id="8761" xmlns:xlink="http://www.w3.org/1999/xlink" width="200" height="200"><defs><style type="text/css"></style></defs><path d="M264.92799998 462.56000002a342.72 342.528 0 1 0 685.44 0 342.72 342.528 0 1 0-685.44 0Z" fill="#FFE3E2" p-id="8762"></path><path d="M333.97333333 265.22666667l-31.24266666-9.888c16.75733333-52.90666667 41.824-93.408 74.496-120.37333334 33.216-27.41333333 74.66666667-41.312 123.2-41.312 58.47466667 0 107.06133333 17.696 144.384 52.608l31.328 29.30133334-42.88-0.94933334c-3.82933333-0.08533333-7.72266667-0.128-11.584-0.128v-4.992c-30.93333333-28.576-71.75466667-43.06133333-121.248-43.06133333-82.432-0.02133333-136.87466667 45.38666667-166.45333334 138.79466667z" fill="#ff5f7e" p-id="8763"></path><path d="M621.67466667 780.61866667c-94.784 0-180.58666667-21.26933333-255.02933334-63.232-68.07466667-38.4-128.07466667-94.848-178.60266666-168.07466667L60.736 653.64266667a33.86666667 33.86666667 0 0 1-53.984-35.62666667C44.8 486.95466667 53.83466667 444.992 54.69866667 432.85333333c0.68266667-9.6-1.344-43.104-22.60266667-158.82666666a33.856 33.856 0 0 1 27.18933333-39.46666667 34.05866667 34.05866667 0 0 1 28.928 8.27733333l117.26933334 106.912C258.13333333 282.29333333 317.86666667 230.25066667 383.12533333 194.86933333c71.776-38.90133333 152.032-58.66666667 238.54933334-58.66666666 57.6 0 111.936 9.13066667 161.36533333 27.12533333 46.44266667 16.91733333 87.616 41.23733333 122.35733333 72.288C971.936 295.11466667 1010.13333333 376.30933333 1010.13333333 458.432s-38.16533333 163.31733333-104.704 222.77333333c-34.752 31.05066667-75.91466667 55.37066667-122.35733333 72.288-49.46133333 17.99466667-103.75466667 27.12533333-161.39733333 27.12533334zM198.02666667 484.64l13.248 20.704c49.344 77.13066667 108.8 135.66933333 176.82133333 173.984 67.81866667 38.21866667 146.41066667 57.6 233.6 57.6 52.53333333 0 101.792-8.24533333 146.42133333-24.53333333 41.20533333-15.008 77.61066667-36.46933333 108.192-63.808 57.26933333-51.2 90.12266667-120.53333333 90.12266667-190.19733334s-32.85333333-139.01866667-90.12266667-190.19733333c-30.592-27.33866667-66.98666667-48.8-108.192-63.808-44.62933333-16.256-93.86666667-24.53333333-146.42133333-24.53333333-79.15733333 0-152.416 17.952-217.728 53.33333333C338.28266667 268.87466667 278.4 323.25333333 226.13333333 394.92266667l-14.35733333 19.66933333L80.224 294.72c17.84533333 100.66133333 18.976 128.864 18.048 141.22666667s-6.25066667 43.15733333-40.81066667 163.89333333z" fill="#ff5f7e" p-id="8764"></path><path d="M764.704 745.87733333c-30.93333333-36.88533333-55.328-80.27733333-72.352-128.93866666a488.87466667 488.87466667 0 0 1 0-317.07733334c17.06666667-48.672 41.36533333-92.05333333 72.352-128.93866666l33.46133333 28.096c-27.57333333 32.82133333-49.29066667 71.60533333-64.56533333 115.27466666a445.19466667 445.19466667 0 0 0 0 288.224c15.27466667 43.65866667 36.992 82.44266667 64.56533333 115.27466667zM513.13066667 633.33333333a122.60266667 122.60266667 0 0 1-27.27466667-3.072l-0.52266667-0.128c-55.46666667-14.10133333-81.06666667-30.00533333-85.77066666-53.17333333-2.13333333-10.74133333-0.37333333-26.86933333 20.52266666-42.66666667 9.94133333-7.53066667 19.2-15.89333333 28.16-23.98933333 21.45066667-19.38133333 41.70666667-37.696 66.13333334-37.696 28.8 0 80.24533333 4.82133333 101.536 37.09866667 7.60533333 11.53066667 14.18666667 31.04 2.41066666 58.56-9.16266667 21.39733333-27.616 40.384-50.63466666 52.096a120.32 120.32 0 0 1-54.56 12.97066666zM495.82933333 587.73333333a76.352 76.352 0 0 0 52.04266667-6.31466666c14.048-7.14666667 25.088-18.21866667 30.29333333-30.35733334 5.00266667-11.66933333 2.19733333-15.91466667 1.28-17.30133333-5.54666667-8.416-28.27733333-17.472-65.06666666-17.472-7.616 0-23.81866667 14.64533333-36.84266667 26.42133333-9.19466667 8.30933333-19.62666667 17.73866667-31.08266667 26.41066667l-0.55466666 0.42666667c6.016 3.82933333 19.75466667 10.48533333 49.93066666 18.18666666z" fill="#ff5f7e" p-id="8765"></path><path d="M844.02133333 481.36533333a46.93333333 46.93333333 0 1 1 46.93333334-46.93333333 47.02933333 47.02933333 0 0 1-46.93333334 46.93333333z m0-72.08533333a25.12 25.12 0 1 0 25.13066667 25.12 25.152 25.152 0 0 0-25.13066667-25.12z" fill="#FF6767" p-id="8766"></path></svg>