<?xml version="1.0" standalone="no"?><!DOCTYPE svg PUBLIC "-//W3C//DTD SVG 1.1//EN" "http://www.w3.org/Graphics/SVG/1.1/DTD/svg11.dtd"><svg t="1620896393363" class="icon" viewBox="0 0 1024 1024" version="1.1" xmlns="http://www.w3.org/2000/svg" p-id="16844" xmlns:xlink="http://www.w3.org/1999/xlink" width="200" height="200"><defs><style type="text/css"></style></defs><path d="M531.94824 905.206463c-23.799167 36.468214-54.33204 63.081521-93.058069 80.016934-30.160785 13.182022-61.79547 19.489452-94.557256 18.691088-35.015988-0.859776-62.575771-29.723672-62.976759-64.468722-0.379313-33.321724 25.829394-61.961645 59.772469-65.126198 16.303224-1.517251 32.714824-2.142214 47.847597-9.674282 13.171185-6.549467 23.87503-15.595174 32.902674-30.63041-16.270712 5.675242-30.178847 10.833895-44.285669 15.371199-26.371269 8.482156-53.407239 13.61191-81.13681 14.580061-32.888224 1.148776-60.867057-18.719989-68.720638-48.580936-7.784943-29.593622 6.17738-60.682819 33.6902-74.85828 9.793495-5.046666 20.435927-7.026318 31.28066-7.253905 12.921922-0.278163 25.291131-3.164552 37.812066-7.105793-14.558386-3.244027-29.496084-4.121866-43.920808-7.813843-67.8428-17.361688-121.080251-53.436139-149.557609-119.487137-10.790545-25.038256-17.72655-51.70575-10.385945-79.399196 8.409906-31.710548 36.970352-51.1422 69.537063-48.248585 30.612347 2.712989 55.423016 27.082932 57.57968 59.075255 1.842376 27.361095 18.250363 42.421619 40.525055 53.118239 16.776462 8.055881 34.889551 11.292683 53.562576 11.050646 17.101588-0.220363 29.127609-8.677231 35.445876-23.972568 6.253242-15.147224 4.642066-30.084922-7.423693-42.212093-18.344288-18.441826-36.367064-37.006477-50.369124-59.212531-39.986792-63.424709-54.63549-132.52466-44.943146-206.407564 10.082495-76.816256 43.949707-141.303041 104.831215-190.404177C478.20865-2.590164 611.130685 3.500515 696.12926 87.328639c73.897354 72.885853 100.507049 161.991844 86.215988 263.907768-9.551457 68.142637-39.947054 125.595879-89.987441 172.912439-18.004713 17.025725-19.518352 39.567741-5.259804 56.651267 7.040768 8.431581 15.837212 13.232597 26.927595 13.546885 24.586693 0.689988 47.703097-4.638453 68.49305-17.964976 17.112425-10.967558 26.541057-26.317082 28.072758-47.392422 1.871276-25.764369 16.353799-43.86662 40.160192-53.497552 45.177958-18.279263 93.249531 17.983038 89.268553 67.7272-5.794454 72.27534-45.174346 122.005052-107.602004 155.063063-28.549608 15.125549-59.335356 23.430692-91.652804 25.695732-2.254202 0.15895-4.898554-0.502138-7.011868 2.684089 12.575122 4.139928 25.135793 5.946179 38.068553 6.63978 34.68725 1.882114 59.974769 22.502279 65.386298 52.713639 7.748818 43.259719-24.655331 79.608721-69.919989 77.907232-35.850476-1.351076-70.353489-9.446694-103.754689-22.390292-6.14848-2.384252-12.311409-4.707091-18.990926-5.989529 11.765921 21.021153 30.171622 32.039286 53.042376 36.121414 7.842743 1.398039 15.895012 1.683426 23.864193 2.312002 35.669851 2.81414 61.762958 30.829098 61.264432 65.85231-0.487688 34.3838-28.098046 63.710097-63.504184 63.88711-71.23494 0.368475-130.866521-25.623481-175.585691-82.480661-3.69559-4.692641-7.047993-9.648995-11.675608-16.028674z m214.925845-591.193283c0.15895-70.772539-17.260538-125.910167-55.155691-173.703577-35.752939-45.098483-81.631722-74.43923-139.80024-79.644846-80.923672-7.243068-144.424243 26.750582-188.540125 92.263318-56.907754 84.503662-60.888732 175.412291-19.796515 268.311409 14.168235 32.035673 37.90599 56.828279 61.950808 81.631722 20.970578 21.628053 25.724631 48.490623 16.332124 76.859606-9.891032 29.868172-31.096423 48.34251-62.37347 52.760601-30.51481 4.316941-59.880844-2.138602-87.054089-16.216524-33.209737-17.213575-55.329091-42.670881-57.453242-82.23501-0.787526-14.735398-12.838834-24.810668-26.385719-24.232668-14.027348 0.603288-24.839568 12.130784-24.908206 27.274395-0.07225 16.158724 2.832202 31.873111 9.378057 46.709659 23.34038 52.887039 65.917336 83.495774 120.332463 95.373682 54.31759 11.863459 108.82303 13.239822 156.226289-24.994905 7.163593-5.772779 16.017837-4.598716 23.08028 1.976039 6.982968 6.491667 8.420744 14.493361 4.092965 22.899654-1.957976 3.814803-5.140591 7.105793-8.167868 10.245057-48.37141 50.145149-106.951753 78.651408-176.76698 83.546349-17.549538 1.235476-27.516433 11.838171-26.678332 27.400833 0.801976 14.934086 12.470359 24.333818 29.832047 24.257955 27.52727-0.1156 53.851577-6.535017 79.778509-15.042461 24.828731-8.142581 47.963198-19.89044 70.443801-33.050787 7.141918-4.179666 14.529486-4.443378 21.599153-0.083087 6.715642 4.143541 10.06082 10.664108 8.922882 18.373188-7.15998 48.309998-27.964383 87.397277-75.00278 107.927129-16.678925 7.286418-34.524688 9.435857-52.626939 10.346208-16.704212 0.841713-28.058308 12.741297-27.303295 27.444182 0.773076 14.970211 11.552783 24.355493 28.719397 23.896705 74.84383-1.972426 129.573245-35.384463 161.565568-104.032851 4.125478-8.850631 8.456869-17.144938 20.39619-17.498963 12.672659-0.372088 17.184675 8.250956 21.501616 17.545926 31.461286 67.752487 85.42485 101.099499 159.213829 103.956988 18.727214 0.726113 30.417272-8.492994 31.233698-24.008692 0.856163-16.155112-10.299245-26.577182-29.373259-27.465858-70.826727-3.26209-117.424399-46.409821-125.718705-116.427348-1.950751-16.400762 12.849672-27.704283 27.978833-21.111465 5.469329 2.384252 10.490708 5.780004 15.764961 8.626656 42.685331 23.087504 87.418952 39.350991 136.592338 40.51783 17.932463 0.422663 29.875397-9.616482 30.279997-25.005743 0.411825-15.631299-9.359994-25.276681-27.505595-26.454357-47.428547-3.077852-90.500416-18.911451-130.18737-44.451845-13.806985-8.886757-26.808382-18.922289-37.107627-31.959811-5.621054-7.11663-5.888379-14.804036-1.058464-22.285529 4.855204-7.521231 12.195809-10.266733 20.836916-8.258181 5.028604 1.174063 9.826007 3.356015 14.720948 5.097241 68.583363 24.406068 134.822211 20.46844 196.205856-20.071065 38.852466-25.674056 63.110421-61.921908 65.36101-110.18133 0.820038-17.5965-9.64177-30.467847-24.61198-30.969986-15.020786-0.498525-25.760756 10.13307-26.837282 27.671771-1.506414 24.619206-12.311409 44.466295-30.42811 60.422719-31.840598 28.058308-70.082551 38.473153-111.301207 34.922063-32.891837-2.835815-55.022028-23.026092-65.032272-54.24534-9.75737-30.431722-2.673252-58.468355 20.605715-80.226458 56.448966-52.749764 83.358499-117.778424 84.229112-184.400198z" fill="#0A0304" p-id="16845"></path><path d="M746.874085 314.01318c-0.870613 66.621774-27.780145 131.650434-84.2255 184.407423-23.278967 21.758103-30.363085 49.794736-20.605715 80.226458 10.010245 31.219248 32.136824 51.405913 65.032273 54.24534 41.215043 3.55109 79.456996-6.863755 111.301206-34.922063 18.116701-15.956424 28.921696-35.799901 30.42811-60.422719 1.076526-17.535088 11.816496-28.170296 26.837282-27.671771 14.970211 0.502138 25.428406 13.373485 24.611981 30.969986-2.250589 48.259423-26.508544 84.507274-65.361011 110.18133-61.383645 40.539505-127.622493 44.477133-196.205856 20.071065-4.894941-1.741226-9.695957-3.923178-14.720948-5.097241-8.641106-2.008551-15.981712 0.736951-20.836915 8.258181-4.829916 7.481493-4.562591 15.168899 1.058463 22.285529 10.302858 13.03391 23.300642 23.073054 37.107627 31.959811 39.686954 25.536781 82.758823 41.373993 130.187371 44.451845 18.145601 1.177676 27.921033 10.823058 27.505595 26.454357-0.4046 15.389261-12.347534 25.428406-30.279997 25.005743-49.169774-1.166838-93.903394-17.430325-136.592338-40.51783-5.274254-2.846652-10.299245-6.242405-15.764962-8.626656-15.129161-6.592817-29.929584 4.710703-27.978833 21.111465 8.294306 70.017526 54.888365 113.161645 125.718705 116.427348 19.074014 0.885063 30.229422 11.310746 29.373259 27.465858-0.816426 15.519311-12.506484 24.738418-31.233698 24.008692-73.788979-2.85749-127.752544-36.204502-159.213829-103.956988-4.316941-9.294969-8.828956-17.918013-21.501616-17.545926-11.939321 0.354025-16.267099 8.648331-20.39619 17.498963-31.988711 68.648388-86.718126 102.060425-161.565568 104.032851-17.166613 0.458788-27.94632-8.930107-28.719396-23.896705-0.755013-14.699273 10.602695-26.598857 27.303295-27.444182 18.105863-0.910351 35.948014-3.063402 52.626939-10.346208 47.038397-20.529853 67.8428-59.617131 75.002779-107.927129 1.137938-7.709081-2.207239-14.226035-8.922881-18.373188-7.07328-4.360291-14.460848-4.096578-21.599153 0.083087-22.480604 13.16396-45.611458 24.911818-70.443802 33.050787-25.930544 8.507444-52.251238 14.926861-79.778508 15.042461-17.361688 0.075863-29.030071-9.323869-29.832047-24.257955-0.834488-15.562661 9.128794-26.165357 26.678332-27.400833 69.815226-4.891329 128.395569-33.401199 176.766979-83.546349 3.027277-3.139265 6.20628-6.430255 8.167869-10.245057 4.327778-8.406294 2.890002-16.407987-4.092966-22.899654-7.062443-6.574755-15.916687-7.748818-23.080279-1.976039-47.40326 38.234728-101.9087 36.858364-156.22629 24.994905-54.415127-11.877909-96.992084-42.490256-120.332463-95.373682-6.545855-14.832936-9.446694-30.550935-9.378057-46.709659 0.065025-15.143611 10.877245-26.67472 24.908206-27.274395 13.546885-0.581613 25.594581 9.493657 26.385719 24.232668 2.124152 39.564129 24.243505 65.021435 57.453243 82.23501 27.169632 14.077923 56.535666 20.537078 87.054088 16.216524 31.277048-4.421703 52.482438-22.896042 62.373471-52.760601 9.392507-28.368983 4.638453-55.231553-16.332124-76.859606-24.044818-24.799831-47.782572-49.596049-61.950808-81.631722-41.092218-92.899118-37.11124-183.81136 19.796514-268.311409 44.119495-65.512735 107.620066-99.506385 188.540126-92.263318 58.17213 5.205616 104.047301 34.546363 139.80024 79.644846 37.89154 47.786185 55.311028 102.923813 55.152078 173.696352z m-277.743654 143.271855c12.589572-0.10115 22.455316-10.078882 22.563692-22.816567 0.111988-13.203697-10.154745-23.264517-23.477655-23.008029-11.910421 0.227588-22.729867 11.487758-22.444479 23.354829 0.296225 12.047696 11.227658 22.563692 23.358442 22.469767z m103.292288-23.55713c-0.307063 12.697947 9.587582 23.192267 22.130191 23.481267 12.488422 0.289 23.192267-9.74292 23.755818-22.260241 0.527425-11.932096-10.338983-23.286192-22.527567-23.531842-12.849672-0.256488-23.058604 9.493657-23.358442 22.310816z" fill="#D65E3A" p-id="16846"></path><path d="M469.130431 457.285035c-12.130784 0.093925-23.065829-10.425683-23.358442-22.469767-0.285388-11.867071 10.53767-23.127242 22.444479-23.354829 13.32291-0.256488 23.58603 9.804332 23.477655 23.008029-0.104763 12.737684-9.970507 22.719029-22.563692 22.816567zM572.422719 433.727905c0.299838-12.817159 10.50877-22.563692 23.358442-22.307204 12.188584 0.242038 23.058604 11.599746 22.527567 23.531843-0.56355 12.517322-11.267396 22.549242-23.755818 22.260241-12.542609-0.296225-22.437254-10.786933-22.130191-23.48488z" fill="#0A0304" p-id="16847"></path></svg>