<?xml version="1.0" standalone="no"?><!DOCTYPE svg PUBLIC "-//W3C//DTD SVG 1.1//EN" "http://www.w3.org/Graphics/SVG/1.1/DTD/svg11.dtd"><svg t="1620896792404" class="icon" viewBox="0 0 1433 1024" version="1.1" xmlns="http://www.w3.org/2000/svg" p-id="3128" width="223.90625" height="160" xmlns:xlink="http://www.w3.org/1999/xlink"><defs><style type="text/css"></style></defs><path d="M1389.909333 405.640533c-53.930667 10.171733-93.047467 54.818133-93.047466 106.154667 0 51.336533 39.1168 95.982933 92.9792 106.154667 23.210667 4.437333 39.936 23.483733 39.936 45.533866v219.818667c0 76.868267-67.037867 139.400533-149.504 139.400533h-465.1008c-27.511467 0-49.834667-20.821333-49.834667-46.421333 0-25.736533 22.3232-46.4896 49.834667-46.4896h465.1008c27.511467 0 49.834667-20.821333 49.834666-46.421333v-185.7536c-78.916267-30.788267-132.9152-103.765333-132.9152-185.821867 0-82.1248 53.930667-155.0336 132.9152-185.821867v-185.685333c0-25.668267-22.3232-46.4896-49.834666-46.4896h-465.1008c-27.511467 0-49.834667-20.821333-49.834667-46.421333 0-25.668267 22.3232-46.421333 49.834667-46.421334h465.1008c82.466133 0 149.504 62.464 149.504 139.264v219.818667c0 22.1184-16.725333 41.1648-39.936 45.602133zM150.7328 93.7984c-27.511467 0-49.834667 20.821333-49.834667 46.421333v185.7536c78.916267 30.72 132.846933 103.697067 132.846934 185.821867s-53.930667 155.0336-132.846934 185.7536v185.821867c0 25.6 22.3232 46.421333 49.834667 46.421333h465.1008c27.511467 0 49.834667 20.753067 49.834667 46.421333 0 25.668267-22.3232 46.421333-49.834667 46.421334H150.801067c-82.466133 0-149.504-62.464-149.504-139.264V663.552c0-22.1184 16.657067-41.1648 39.867733-45.602133 53.930667-10.171733 92.9792-54.818133 92.9792-106.154667 0-51.336533-39.1168-95.982933-92.9792-106.154667-23.210667-4.437333-39.867733-23.483733-39.867733-45.533866v-219.818667C1.297067 63.351467 68.266667 0.8192 150.801067 0.8192h465.1008c27.511467 0 49.834667 20.821333 49.834666 46.421333 0 25.668267-22.3232 46.4896-49.834666 46.4896H150.801067z m370.2784 245.1456c27.511467 0 49.834667 20.821333 49.834667 46.421333v45.397334c0 25.668267-22.3232 46.421333-49.834667 46.421333-27.511467 0-49.834667-20.753067-49.834667-46.421333v-45.329067c0-25.668267 22.3232-46.421333 49.834667-46.421333z m388.9152 0c27.511467 0 49.834667 20.821333 49.834667 46.421333v45.397334c0 25.668267-22.3232 46.421333-49.834667 46.421333-27.511467 0-49.834667-20.753067-49.834667-46.421333v-45.329067c0-25.668267 22.3232-46.421333 49.834667-46.421333z m-56.866133 273.954133c-18.295467 26.624-67.9936 71.68-138.103467 71.68-70.519467 0-119.6032-45.397333-137.489067-72.226133-14.472533-21.777067-7.304533-50.3808 16.042667-63.965867a52.0192 52.0192 0 0 1 68.334933 14.5408c1.365333 1.8432 21.162667 28.808533 53.111467 28.808534 32.768 0 53.930667-28.672 54.203733-28.945067a52.0192 52.0192 0 0 1 68.8128-14.062933c23.210667 13.858133 29.9008 42.5984 15.086934 64.170666z" fill="#d81e06" p-id="3129"></path></svg>