<?xml version="1.0" standalone="no"?><!DOCTYPE svg PUBLIC "-//W3C//DTD SVG 1.1//EN" "http://www.w3.org/Graphics/SVG/1.1/DTD/svg11.dtd"><svg t="1620896441934" class="icon" viewBox="0 0 1024 1024" version="1.1" xmlns="http://www.w3.org/2000/svg" p-id="21146" xmlns:xlink="http://www.w3.org/1999/xlink" width="200" height="200"><defs><style type="text/css"></style></defs><path d="M401.719467 302.920533c-20.821333-55.415467-83.712-88.085333-142.784-84.142933-59.072 3.9424-112.810667 39.0528-150.562134 84.6592-7.3216 8.8448-14.528 20.292267-10.581333 31.074133 26.6112-65.3568 104.4864-101.738667 174.062933-89.9328 17.301333 2.935467 34.389333 8.516267 48.896 18.397867 19.869867 13.5296 34.107733 35.072 38.762667 58.658133l42.205867-18.7136M620.347733 826.333867c5.448533 4.245333 12.373333 8.490667 18.816 6.033066 12.48-4.7488 6.1696-25.245867 14.711467-35.498666 9.595733-11.528533 28.1472-2.176 39.240533 7.936 11.089067 10.112 28.061867 21.000533 39.3344 11.0848 3.255467-2.845867 5.102933-6.954667 6.856534-10.9184l20.608-46.583467c11.618133 8.405333 27.008 17.092267 39.296 9.6896 11.328-6.784 12.0192-22.481067 14.016-35.549867 1.9968-13.0432 11.4432-28.5952 24.2432-25.301333 1.557333 0.392533 3.067733 1.088 4.672 1.173333 5.8368 0.362667 9.258667-6.784 8.9728-12.625066-0.290133-5.8368-2.555733-11.754667-1.024-17.399467 1.348267-4.970667 5.3504-8.657067 8.849066-12.398933 19.370667-20.834133 26.794667-49.749333 33.536-77.3632-126.1568 19.869867-244.7744 73.621333-344.853333 152.183466 14.72 33.314133 44.2496 63.394133 72.725333 85.538134" fill="#B54D8D" p-id="21147"></path><path d="M232.128 559.424s39.637333 99.541333 80.132267 136.938667c40.490667 37.393067 19.434667-88.392533 19.434666-88.392534s-66.935467 5.806933-99.566933-48.546133" fill="#C3D540" p-id="21148"></path><path d="M551.424 327.560533a297.284267 297.284267 0 0 0-79.394133-90.1632c-5.290667-3.976533-11.332267-10.798933-7.4624-16.170666 1.749333-2.427733 4.923733-3.2768 7.863466-3.810134 35.170133-6.357333 70.1312 9.536 102.344534 25.015467l-6.869334-32.4352c-0.763733-3.588267-1.5104-7.406933-0.234666-10.845867 3.3408-8.977067 16.324267-8.1792 25.275733-4.7616a138.747733 138.747733 0 0 1 47.765333 30.698667c1.181867-6.08 2.453333-12.3904 6.161067-17.348267 3.712-4.962133 10.615467-8.119467 16.260267-5.568 3.682133 1.664 6.058667 5.316267 7.701333 9.002667 3.413333 7.671467 4.573867 16.200533 8.081067 23.825067 3.511467 7.624533 10.56 14.673067 18.944 14.242133 4.573867-0.234667 8.704-2.6368 12.8128-4.667733a89.386667 89.386667 0 0 1 30.711466-8.814934c3.328-0.3328 7.2064-0.256 9.322667 2.333867 2.7264 3.336533 0.682667 8.277333-1.429333 12.032-4.885333 8.686933-9.7664 17.365333-14.6432 26.052267a194.133333 194.133333 0 0 1 76.817066 4.5568c7.752533 2.056533 17.28 9.0624 13.073067 15.8976-1.314133 2.133333-3.694933 3.349333-6.0032 4.334933a72.021333 72.021333 0 0 1-21.674667 5.4784c25.4336 4.957867 48.930133 19.285333 64.981334 39.6288a128.554667 128.554667 0 0 1-31.509334 6.779733c32.187733 9.079467 60.458667 31.300267 76.8896 60.4288-29.717333 2.461867-62.357333 6.2848-82.628266 28.151467-5.056 5.4528-9.152 11.886933-15.0784 16.375467-5.922133 4.4928-14.634667 6.587733-20.7104 2.304L551.424 327.556267M899.5328 455.0656c3.690667 3.677867 9.813333-0.477867 12.740267-4.7872 12.778667-18.8288 15.138133-44.923733 33.015466-59.008 2.9952-2.3552 6.830933-4.352 10.496-3.293867 5.858133 1.685333 7.04 9.450667 6.395734 15.5136a79.530667 79.530667 0 0 1-9.617067 30.229334l40.96-17.877334c-4.928 19.208533-17.6256 36.309333-34.589867 46.583467 18.965333-3.118933 36.040533 11.754667 47.488 27.191467 2.180267 2.935467 4.3648 6.199467 4.330667 9.856-0.055467 5.768533-5.888 10.1376-11.6352 10.679466-5.7472 0.533333-11.345067-1.732267-16.669867-3.959466 11.874133 9.911467 23.965867 20.0704 32.017067 33.28 8.0512 13.2096 11.477333 30.250667 4.945067 44.270933-6.2592-3.0592-9.378133-10.052267-14.114134-15.163733-4.736-5.111467-14.1568-7.812267-17.9968-2.005334-4.130133 6.263467 2.7648 13.627733 7.5392 19.413334 10.683733 12.9408 11.925333 31.688533 7.3472 47.837866-4.245333 14.976-13.294933 45.892267-26.8288 25.194667-6.984533-10.666667-1.902933-32.951467-15.982933-39.197867 10.414933 4.616533 12.885333 19.259733 8.068267 29.5936-6.698667 14.353067-16.725333 21.9776-30.126934 10.696534-5.8752-4.945067-7.509333-30.370133-11.3664-39.466667a349.482667 349.482667 0 0 0-21.533866-42.478933l-4.881067-123.101867" fill="#B54D8D" p-id="21149"></path><path d="M944.349867 529.847467c-1.0368 24.192-14.805333 45.0816-31.8848 62.9888-5.738667 6.024533-11.8528 11.703467-17.984 17.0624a579.874133 579.874133 0 0 1-36.181334 29.154133 587.054933 587.054933 0 0 1-31.586133 21.9264c-4.245333 2.7648-8.5248 5.444267-12.834133 8.098133a607.799467 607.799467 0 0 1-37.0432 20.9152 614.084267 614.084267 0 0 1-86.4384 36.864 1575.108267 1575.108267 0 0 1-44.373334 14.382934c-6.0288 1.8432-12.074667 3.630933-18.133333 5.3632-57.826133 16.558933-117.0688 27.758933-177.608533 24.2688-50.922667-2.9312-96.183467-29.9392-131.3152-67.1104-33.5616-35.464533-55.765333-80.9984-66.0736-128.738134-14.1696-65.591467-5.367467-137.365333 31.2576-193.5872 45.405867-69.696 129.130667-108.488533 212.168533-113.237333 27.648-1.578667 55.210667 0.2176 82.4192 4.706133h0.008533c7.236267 1.1904 14.446933 2.568533 21.632 4.130134 24.384 5.290667 48.418133 12.612267 71.914667 21.4528 3.729067 1.408 7.4496 2.850133 11.153067 4.330666a656.64 656.64 0 0 1 40.7936 17.941334c3.9424 1.8944 7.867733 3.822933 11.767466 5.781333l1.472 0.7424a733.2224 733.2224 0 0 1 45.969067 25.2928c21.7472 13.0432 42.756267 27.298133 62.677333 42.888533 5.12 4.002133 10.154667 8.081067 15.112534 12.253867a505.8688 505.8688 0 0 1 43.392 41.066667c21.141333 22.587733 41.045333 50.167467 39.7184 81.066666" fill="#C3D540" p-id="21150"></path><path d="M655.645867 622.954667c-0.8576 23.082667 6.272 45.704533 4.381866 68.770133-1.425067 17.314133-6.583467 33.847467-14.0032 49.514667-6.0288 1.8432-12.074667 3.630933-18.133333 5.3632 12.6208-22.647467 20.992-47.1424 18.666667-73.979734-1.019733-11.618133-3.3024-23.125333-4.074667-34.769066-0.708267-10.752 0-21.5168 1.1648-32.200534 2.295467-20.919467 6.536533-41.8944 5.649067-63.0272-0.405333-9.621333-2.082133-19.3536-5.9136-28.232533-3.3664-7.7824-8.337067-14.728533-13.892267-21.077333-11.2512-12.8896-24.533333-24.004267-34.304-38.161067-11.234133-16.273067-13.7472-34.965333-8.913067-54.024533 4.919467-19.362133 15.914667-37.175467 18.3808-57.181867 3.293867-26.794667-7.530667-52.3648-25.9072-71.04 7.236267 1.186133 14.446933 2.56 21.632 4.125867a102.007467 102.007467 0 0 1 11.349334 20.100266c7.330133 17.258667 9.856 36.2368 6.289066 54.7072-4.040533 20.9152-16.200533 39.5008-19.2768 60.637867-2.555733 17.4592 5.000533 32.196267 16.1536 45.034667 11.5968 13.341867 25.284267 24.917333 34.888534 39.914666 11.477333 17.928533 14.101333 39.3088 12.829866 60.1728-1.339733 21.888-6.161067 43.4176-6.967466 65.352534M719.325867 716.245333a136.064 136.064 0 0 1-8.2944-14.1568c-7.906133-15.726933-11.2-32.789333-7.569067-50.158933 3.938133-18.8672 12.637867-36.352 16.4864-55.261867 3.426133-16.836267 4.258133-34.184533 2.2784-51.264a173.0688 173.0688 0 0 0-13.691733-50.4192c-7.0528-15.918933-16.814933-29.960533-28.125867-43.118933-10.730667-12.4928-22.7072-25.732267-22.2336-43.264 0.2688-10.112 3.797333-20.053333 7.351467-29.422933 3.626667-9.544533 7.829333-18.8672 11.349333-28.458667 5.4144-14.749867 9.365333-31.991467 6.570667-47.901867l-11.153067-4.330666c5.192533 17.975467-0.580267 36.970667-7.223467 53.789866-7.146667 18.0864-17.109333 36.48-17.7792 56.32-0.605867 18.133333 9.685333 32.763733 20.8256 46.033067 10.7136 12.753067 20.501333 25.472 27.6992 40.6144a154.171733 154.171733 0 0 1 13.7984 47.906133c1.898667 16.285867 1.4848 32.9216-1.809066 48.9984-3.771733 18.466133-12.125867 35.515733-16.4864 53.802667-4.906667 20.637867-2.2528 40.605867 6.562133 59.7632a156.202667 156.202667 0 0 0 8.2944 15.556267l13.149867-5.026134M764.245333 593.757867c-4.138667 14.997333-5.661867 30.203733-4.1344 45.717333a123.328 123.328 0 0 0 11.818667 41.527467c1.506133 3.0976 3.153067 6.088533 4.906667 8.989866-4.1728 2.180267-8.362667 4.3008-12.586667 6.370134a141.141333 141.141333 0 0 1-5.981867-11.8144c-7.138133-15.808-11.438933-32.648533-12.484266-49.984-0.981333-16.384 1.489067-32.5376 6.088533-48.2432 4.8512-16.580267 11.5968-33.122133 12.168533-50.581334 1.058133-32.785067-18.7904-61.589333-36.654933-87.364266-9.361067-13.512533-20.727467-27.272533-24.704-43.562667-4.2368-17.403733 3.029333-32.6272 10.965333-47.671467 3.6992-7.0144 7.1552-13.994667 8.951467-21.777066 1.109333-4.795733 1.6-9.693867 1.642667-14.6048l13.239466 6.523733a72.349867 72.349867 0 0 1-2.449066 14.7968c-2.4576 8.853333-6.8608 16.994133-11.0848 25.096533-3.383467 6.5024-6.673067 13.060267-8.1664 20.292267-1.5488 7.547733 0.123733 15.3216 3.336533 22.216533 6.954667 14.912 17.975467 28.014933 27.118933 41.621334 17.9712 26.7392 34.833067 57.365333 31.296 90.730666-1.8944 17.877333-8.546133 34.517333-13.290666 51.720534M847.8336 553.220267c-7.714133 33.335467-21.930667 65.762133-21.4272 100.522666 0.034133 2.402133 0.136533 4.834133 0.3072 7.236267-4.245333 2.7648-8.5248 5.444267-12.834133 8.098133a142.528 142.528 0 0 1-0.938667-21.226666c1.109333-35.908267 16.059733-69.056 23.466667-103.765334 6.101333-28.6976 6.660267-62.250667-13.141334-86.045866-17.92-21.538133-46.011733-36.151467-51.972266-65.749334-3.0592-15.1808-0.917333-30.843733 1.250133-46.109866 3.652267 2.094933 7.287467 4.232533 10.9056 6.4-2.0224 16.162133-4.023467 33.553067 3.648 48.3584 6.088533 11.754667 16.2944 20.625067 25.9968 29.346133 10.517333 9.437867 21.051733 19.127467 28.087467 31.569067 15.607467 27.579733 13.568 61.533867 6.656 91.3664" fill="#80BD44" p-id="21151"></path><path d="M892.292267 531.2128v0.008533a268.100267 268.100267 0 0 1-3.182934 9.1648c-8.170667 22.254933-19.3536 44.8128-20.629333 68.855467-0.375467 7.031467 0.055467 14.0544 1.518933 20.893867-3.8656 3.029333-7.765333 5.998933-11.703466 8.917333-3.0336-10.504533-3.797333-21.892267-3.0336-31.889067 1.962667-25.646933 13.4528-48.904533 22.1696-72.699733 8.106667-22.148267 14.583467-47.8464 5.230933-70.673067-4.270933-10.440533-11.5968-19.387733-18.2272-28.3904-6.933333-9.425067-13.277867-19.336533-16.405333-30.7328-0.827733-3.029333-1.4592-6.101333-1.902934-9.2032 5.12 4.002133 10.154667 8.081067 15.112534 12.253867 0.5376 1.258667 1.122133 2.500267 1.757866 3.7376 7.112533 13.8496 18.048 25.096533 26.052267 38.122667 3.703467 6.016 6.784 12.416 8.554667 19.626666 5.0944 20.650667 1.194667 42.043733-5.312 62.007467" fill="#80BD44" p-id="21152"></path><path d="M396.360533 504.046933c56.106667-11.336533 73.117867-82.449067 45.482667-127.633066-31.803733-52.010667-118.8992-33.1776-139.191467 19.242666-15.3344 39.611733 0.5376 82.8032 39.7312 100.501334 20.181333 9.109333 38.365867 11.042133 53.9776 7.889066" fill="#FFFFFE" p-id="21153"></path><path d="M386.0352 381.730133c-29.038933-31.330133-79.556267-7.901867-74.146133 34.641067 4.808533 37.8368 56.8576 52.352 76.910933 17.937067 10.069333-17.275733 11.741867-36.932267-2.7648-52.578134" fill="#0A0B09" p-id="21154"></path><path d="M350.6048 391.991467c-2.184533-13.986133-22.651733-17.595733-29.085867-4.522667-5.149867 10.466133 0.324267 23.918933 12.181334 22.813867 9.877333-0.917333 18.602667-7.419733 16.904533-18.2912" fill="#FFFFFE" p-id="21155"></path><path d="M425.3696 529.6a198.2464 198.2464 0 0 1-5.376 46.3488c-2.299733 9.6768-5.4784 19.421867-10.816 27.712-1.7792 2.756267-3.797333 5.354667-6.088533 7.7312-7.266133 7.517867-16.938667 12.343467-26.897067 15.5136-42.235733 13.435733-94.6432 2.730667-119.534933-33.941333l-24.533334-33.540267c7.112533 9.002667 17.536 14.596267 28.48 18.363733 2.013867 0.6912 4.040533 1.3312 6.08 1.9072 5.5168 1.5744 11.1104 2.794667 16.746667 3.669334a147.285333 147.285333 0 0 0 26.632533 1.710933c2.107733-0.046933 4.215467-0.149333 6.314667-0.290133 41.7536-2.7904 82.551467-22.596267 108.992-55.185067" fill="#DF5357" p-id="21156"></path><path d="M409.1776 603.6608c-1.7792 2.756267-3.797333 5.354667-6.088533 7.7312-7.266133 7.517867-16.938667 12.343467-26.897067 15.5136-42.235733 13.435733-94.6432 2.730667-119.534933-33.941333l-6.199467-8.482134c2.248533-2.333867 6.165333-4.667733 10.146133-6.6944 4.616533-2.359467 9.3184-4.317867 11.6096-5.418666 0.951467-0.448 2.005333-0.904533 3.0208-0.631467 1.058133 0.2816 1.749333 1.262933 2.346667 2.176 2.0224 3.101867 3.9808 6.2592 5.8496 9.454933a241.297067 241.297067 0 0 1 10.013867 18.850134 118.638933 118.638933 0 0 1 21.205333-20.817067 102.199467 102.199467 0 0 0 18.184533 25.984 303.095467 303.095467 0 0 1 17.1648-24.4608 173.917867 173.917867 0 0 0 22.912 21.5296l9.723734-13.841067c8.849067 4.352 17.693867 8.704 26.542933 13.047467" fill="#FFFFFE" p-id="21157"></path><path d="M43.8144 371.191467c0.136533 4.906667 0.759467 9.984 3.3024 14.1824 1.962667 3.242667 4.949333 5.7472 8.1664 7.752533 40.900267 25.518933 79.342933-26.538667 56.209067-63.4112-27.797333-44.3008-68.654933 6.391467-67.677867 41.476267M91.195733 419.089067c0.8448 5.0944 2.244267 9.915733 3.848534 14.8224 1.117867 3.426133 1.962667 8.900267 5.8112 10.146133 0.836267 0.2688 1.608533-0.200533 2.082133-0.849067 2.402133-3.3024-0.6016-9.002667-1.698133-12.450133-1.4976-4.7104-3.2-9.2032-5.3888-13.632-1.373867-2.773333-5.090133-0.682667-4.650667 1.962667M121.809067 392.3584c3.029333 3.6864 6.135467 6.711467 10.043733 9.5232 3.4304 2.466133 6.8864 4.872533 11.229867 3.7248 1.092267-0.290133 1.476267-1.3312 1.335466-2.346667-0.6272-4.48-4.5312-6.779733-8.106666-9.015466-3.9808-2.491733-7.970133-4.104533-12.416-5.469867-2.218667-0.682667-3.349333 2.048-2.090667 3.584M136.917333 357.1328c1.194667 2.133333 1.928533 3.426133 4.061867 4.791467 1.8048 1.160533 3.797333 1.975467 5.9008 2.376533 4.5056 0.861867 8.930133 0.2304 12.5568-2.6624 0.8576-0.682667 1.156267-2.171733 0.840533-3.1744-1.220267-3.861333-6.033067-1.813333-8.896-1.706667-3.835733 0.145067-8.192-0.853333-11.665066-2.4192-1.792-0.810667-3.861333 0.887467-2.794667 2.794667M128.6528 325.696c2.496-1.9072 5.4912-3.515733 8.533333-4.322133 2.833067-0.7552 6.0928-0.379733 8.704-1.757867 1.258667-0.661333 1.169067-2.197333 0.4096-3.157333-2.513067-3.182933-7.978667-2.602667-11.3408-1.3568-4.087467 1.514667-7.0912 4.053333-8.827733 8.072533-0.622933 1.4464 0.861867 3.7888 2.5216 2.5216M69.905067 294.101333c-0.260267-9.250133-8.418133-18.325333-17.143467-21.12-4.347733-1.386667-8.354133 4.906667-4.629333 7.957334 3.182933 2.602667 6.660267 4.672 9.749333 7.4368 2.935467 2.628267 5.687467 5.218133 8.849067 7.552 1.3056 0.955733 3.217067-0.341333 3.1744-1.826134M33.749333 326.7584c-7.3344-6.178133-19.063467-7.492267-27.025066-1.792-3.042133 2.176-2.397867 8.0384 2.094933 7.739733 7.662933-0.503467 14.894933-0.968533 22.5792-0.285866 2.786133 0.2432 4.488533-3.857067 2.346667-5.661867M18.3808 385.476267C11.025067 386.261333 2.6112 390.570667 0.1792 398.071467c-1.066667 3.268267 2.871467 6.058667 5.704533 4.386133 2.538667-1.493333 4.637867-3.771733 6.971734-5.572267a93.8112 93.8112 0 0 1 7.249066-5.0432c2.624-1.659733 1.860267-6.741333-1.723733-6.365866M39.0656 419.6352c-1.8304 3.0336-3.438933 5.909333-4.8 9.1904-1.237333 2.9696-2.261333 5.8368-0.938667 8.925867 0.430933 1.002667 2.0224 1.6 3.029334 1.2288 3.1104-1.134933 4.4672-3.968 5.742933-6.848 1.429333-3.2384 2.397867-6.4128 3.328-9.813334 1.053867-3.8272-4.322133-6.071467-6.357333-2.688" fill="#EDE848" p-id="21158"></path><path d="M539.613867 511.684267c17.344-5.457067 33.757867-14.267733 50.193066-21.986134l-7.185066-7.1808c-3.8784 5.973333-8.622933 11.264-14.101334 15.825067-5.521067 4.590933-11.485867 7.505067-18.103466 10.133333-6.4768 2.568533-5.243733 10.986667 1.6 11.831467 13.248 1.629867 26.312533 4.565333 39.061333 8.4992l1.664-12.296533c-9.3696 0.6912-18.7392 1.386667-28.1088 2.107733-7.466667 0.571733-8.328533 9.838933-1.698133 12.552533 7.825067 3.2 13.960533 10.1632 16.567466 18.1248l7.970134-7.965866c-7.389867-2.176-13.632-6.280533-18.747734-12.0192-5.179733-5.8112-13.457067 1.578667-10.282666 7.936 6.417067 12.859733 9.284267 27.016533 8.733866 41.3568l1.954134-4.718934c-3.52 2.948267-7.0144 5.922133-10.568534 8.823467l11.2512 2.9696c-7.837867-25.169067-16.119467-50.1888-24.3072-75.246933l-11.912533 6.933333c6.327467 5.905067 12.663467 11.793067 18.9952 17.6896l-1.834667-6.941867c-4.433067 15.278933 0.512 32.712533 12.701867 43.0592 2.935467 2.491733 7.210667 2.88 10.0864 0 2.56-2.56 2.952533-7.581867 0-10.0864-8.4736-7.202133-12.1472-18.423467-9.028267-29.175466 0.686933-2.372267-0.008533-5.248-1.834666-6.946134-6.331733-5.892267-12.663467-11.793067-19.008-17.6768-4.9408-4.586667-14.250667-0.149333-11.908267 6.933334 8.2688 25.045333 16.448 50.112 25.066667 75.037866 1.7152 4.962133 7.3088 6.4 11.2512 2.973867 2.2528-1.954133 4.5312-3.874133 6.805333-5.802667 2.7392-2.3168 5.307733-3.968 5.627733-7.825066 0.443733-5.367467-0.119467-10.939733-0.832-16.256a98.944 98.944 0 0 0-9.9328-31.709867l-10.282666 7.936c6.587733 7.313067 15.112533 12.522667 24.558933 15.249067 4.573867 1.322667 9.544533-3.246933 7.970133-7.970134-4.202667-12.603733-13.397333-22.0672-25.659733-27.008l-1.7024 12.552534c9.373867-0.768 18.7392-1.565867 28.1088-2.368 6.826667-0.580267 8.750933-10.193067 1.664-12.296534a244.202667 244.202667 0 0 0-42.389333-8.469333l1.6 11.8272c15.488-6.3488 29.1328-18.167467 38.071466-32.273067 3.012267-4.753067-2.760533-9.322667-7.185066-7.1808-15.9872 7.722667-32.789333 14.754133-47.6288 24.558934-3.2128 2.1248-1.28 7.752533 2.7392 6.4896" fill="#B54D8D" p-id="21159"></path></svg>