<?xml version="1.0" standalone="no"?><!DOCTYPE svg PUBLIC "-//W3C//DTD SVG 1.1//EN" "http://www.w3.org/Graphics/SVG/1.1/DTD/svg11.dtd"><svg t="1620896438819" class="icon" viewBox="0 0 1024 1024" version="1.1" xmlns="http://www.w3.org/2000/svg" p-id="20981" xmlns:xlink="http://www.w3.org/1999/xlink" width="200" height="200"><defs><style type="text/css"></style></defs><path d="M559.7568 641.4848c-14.216533 3.605333-28.245333 9.211733-42.8288 10.990933-10.9056 1.335467-17.301333 4.241067-25.3568 12.1984-18.1248 17.885867-28.501333 42.218667-22.869333 67.7376 3.3536 15.168 11.6352 28.7488 20.369066 41.6 10.24 15.057067 21.405867 29.678933 35.178667 41.595734 24.738133 21.397333 51.345067 25.437867 83.072 23.0144 24.797867-1.898667 81.949867-29.8112 55.9104-62.075734 8.273067 10.248533 26.5856 5.930667 37.380267 3.4048 20.066133-4.689067 34.5984-19.502933 38.1184-39.552 5.917867-33.685333-14.5152-60.5184-43.016534-75.605333-12.7488-6.754133-26.397867-11.6096-39.232-18.193067-8.157867-4.189867-16.418133-8.3584-25.2928-10.670933-23.210667-6.058667-48.750933-0.192-71.432533 5.5552" fill="#CB5358" p-id="20982"></path><path d="M718.805333 723.592533c2.602667 7.5264 0.520533 17.041067-6.276266 21.1968-5.572267 3.409067-12.7744 2.5856-18.952534 0.4608-11.4432-3.925333-21.102933-11.682133-30.506666-19.293866-4.130133-3.345067-8.695467-7.7568-7.816534-12.996267 0.413867-2.4448 1.988267-4.522667 3.694934-6.318933 2.628267-2.760533 5.742933-5.128533 9.322666-6.434134 9.975467-3.639467 21.794133 2.210133 30.805334 4.9536 8.610133 2.624 16.661333 9.5744 19.729066 18.432M618.875733 788.8768c2.602667 7.530667 0.520533 17.041067-6.272 21.201067-5.5808 3.4048-12.778667 2.581333-18.9568 0.465066-11.4432-3.9296-21.102933-11.690667-30.506666-19.298133-4.130133-3.345067-8.699733-7.761067-7.816534-13.000533 0.4096-2.440533 1.988267-4.522667 3.694934-6.314667 2.628267-2.760533 5.742933-5.1328 9.322666-6.4384 9.975467-3.639467 21.789867 2.2144 30.805334 4.962133 8.610133 2.619733 16.6656 9.565867 19.729066 18.423467" fill="#C7313F" p-id="20983"></path><path d="M369.152 323.869867C392.533333 259.754667 453.563733 215.799467 517.8752 192.9728c18.837333-6.685867 38.570667-11.9552 58.542933-11.127467 19.968 0.827733 40.362667 8.443733 53.115734 23.837867 14.062933 16.981333 16.738133 42.5472 6.4896 62.071467 17.518933-6.958933 38.805333 2.901333 48.106666 19.298133 9.301333 16.392533 8.034133 37.2736 0.413867 54.5152-10.8288 24.490667-33.2032 42.525867-57.902933 52.864-24.695467 10.338133-51.720533 13.725867-78.442667 15.342933L369.152 323.869867" fill="#CB5358" p-id="20984"></path><path d="M470.144 310.203733c-6.545067 2.875733-20.996267 4.842667-25.834667-2.568533-2.141867-3.285333-1.3824-7.6032-0.541866-11.434667 1.565867-7.133867 12.855467-15.3984 18.090666-20.578133a265.553067 265.553067 0 0 1 22.011734-19.477333 263.697067 263.697067 0 0 1 49.792-31.069867c7.1936-3.438933 14.775467-6.600533 22.749866-6.826667 14.152533-0.401067 21.589333 11.6608 12.117334 22.724267-12.113067 14.148267-27.8528 25.147733-43.025067 35.7376-17.719467 12.356267-35.579733 24.797867-55.355733 33.493333M506.794667 362.833067c-6.549333 2.875733-21.009067 4.842667-25.8432-2.564267-2.146133-3.2896-1.3824-7.607467-0.541867-11.438933 1.565867-7.133867 12.855467-15.402667 18.090667-20.578134a265.092267 265.092267 0 0 1 71.799466-50.5472c7.202133-3.438933 14.775467-6.600533 22.754134-6.826666 14.152533-0.401067 21.585067 11.665067 12.117333 22.724266-12.113067 14.148267-27.8528 25.147733-43.029333 35.7376-17.7152 12.356267-35.575467 24.797867-55.351467 33.493334M553.425067 410.798933c-6.549333 2.875733-21.0048 4.842667-25.838934-2.568533-2.146133-3.285333-1.3824-7.598933-0.541866-11.434667 1.565867-7.133867 12.855467-15.3984 18.090666-20.578133a265.591467 265.591467 0 0 1 22.011734-19.473067 263.675733 263.675733 0 0 1 49.787733-31.074133c7.197867-3.438933 14.775467-6.600533 22.754133-6.826667 14.148267-0.401067 21.585067 11.665067 12.117334 22.728534-12.113067 14.144-27.8528 25.143467-43.025067 35.733333-17.719467 12.360533-35.584 24.797867-55.355733 33.493333" fill="#C7313F" p-id="20985"></path><path d="M773.034667 412.928c26.7136-22.997333 59.114667-37.8368 93.0432-39.210667 15.133867-0.610133 30.762667 1.527467 44.868266 9.088 14.1056 7.569067 26.581333 21.0432 32.004267 38.0416 7.296 22.839467 0.968533 47.9744-9.5872 67.754667-21.691733 40.661333-61.730133 66.321067-103.637333 66.4192 20.881067 4.224 42.308267 8.669867 60.906666 21.376 38.954667 26.602667 52.360533 82.346667 25.143467 123.131733-28.253867 42.346667-93.888 35.421867-132.458667 10.436267-34.5088-22.357333-72.392533-68.8512-75.554133-115.1744-3.5968-52.663467 0.558933-102.421333 29.824-142.830933 10.5088-14.523733 22.331733-27.7504 35.447467-39.035734" fill="#CB5358" p-id="20986"></path><path d="M736.750933 497.7152c2.8032-16 10.837333-20.706133 22.442667-31.5392 15.812267-14.762667 34.0608-26.653867 52.5952-37.6832 10.312533-6.1312 36.424533-19.259733 41.403733-0.017067 2.7904 10.769067-10.743467 22.532267-18.218666 28.5184a333.137067 333.137067 0 0 1-70.6304 43.345067c-4.2752 1.937067-8.853333 3.8272-13.512534 3.2512-7.424-0.913067-14.135467-10.602667-10.845866-17.851733 0.256-0.554667 0.558933-1.122133 0.913066-1.698134l-4.1472 13.674667M728.046933 536.8064c7.249067-14.532267 16.298667-16.746667 30.510934-23.816533 19.370667-9.642667 40.256-15.825067 61.166933-21.098667 11.6352-2.935467 40.405333-8.064 39.684267 11.8016-0.401067 11.118933-16.7296 18.530133-25.6 22.1312a333.312 333.312 0 0 1-80.064 21.376c-4.650667 0.635733-9.582933 1.134933-13.883734-0.746667-6.852267-2.9952-10.517333-14.1952-5.290666-20.206933 0.401067-0.4608 0.853333-0.9088 1.3568-1.361067l-7.880534 11.921067M724.7104 560.328533c15.099733-5.973333 23.313067-1.5872 38.613333 2.645334 20.855467 5.76 40.529067 15.104 59.618134 25.143466 10.624 5.589333 35.456 20.987733 21.6576 35.2896-7.726933 8.008533-24.832 2.619733-33.834667-0.622933a333.111467 333.111467 0 0 1-73.8688-37.563733c-3.886933-2.632533-7.893333-5.546667-9.838933-9.821867-3.101867-6.805333 1.6512-17.591467 9.557333-18.5728 0.605867-0.0768 1.245867-0.110933 1.92-0.110933l-13.824 3.613866M722.210133 603.925333c15.9488-3.037867 23.197867 2.816 37.435734 9.8304 19.4048 9.570133 36.983467 22.429867 53.853866 35.8656 9.386667 7.4752 30.903467 27.255467 14.6688 38.72-9.088 6.421333-24.878933-2.077867-33.122133-6.9504a333.226667 333.226667 0 0 1-65.527467-50.730666c-3.328-3.310933-6.711467-6.9248-7.825066-11.490134-1.770667-7.261867 4.9152-16.968533 12.864-16.452266 0.610133 0.034133 1.250133 0.128 1.9072 0.251733l-14.254934 0.955733" fill="#C7313F" p-id="20987"></path><path d="M647.748267 755.165867c-78.024533 44.3136-173.3888 54.702933-264.4864 48.776533-10.722133-0.686933-21.4528-1.706667-32.145067-3.067733-50.235733-6.314667-99.682133-19.9936-144.247467-42.56-53.303467-26.990933-92.8-71.552-113.365333-123.972267a231.9872 231.9872 0 0 1-11.767467-40.520533c-4.539733-23.381333-5.9904-45.8112-4.181333-67.1744 1.3696-15.978667 4.565333-31.368533 9.672533-46.1568a181.585067 181.585067 0 0 1 8.977067-21.4784c12.910933-26.090667 32.426667-50.065067 59.067733-71.748267 48.981333-39.872 110.062933-65.621333 173.4912-78.843733 8.7424-1.8176 17.557333-3.409067 26.410667-4.7488 69.410133-10.538667 141.640533-6.2336 207.675733 16.1024 74.466133 25.1776 140.450133 73.975467 179.242667 138.4576 15.68 26.0736 26.961067 54.724267 30.4512 84.462933l0.1152 1.0496c9.365333 84.420267-47.2064 167.2832-124.910933 211.421867" fill="#3BACA2" p-id="20988"></path><path d="M647.748267 755.165867c-78.024533 44.3136-173.3888 54.702933-264.4864 48.776533-61.115733-3.968-122.346667-18.257067-176.392534-45.627733-53.303467-26.990933-92.8-71.552-113.365333-123.972267a231.9872 231.9872 0 0 1-11.767467-40.520533c-4.539733-23.381333-5.9904-45.8112-4.181333-67.1744 5.12 47.304533 23.906133 91.835733 53.154133 130.500266 17.5104 23.125333 43.959467 37.981867 67.754667 53.589334 29.149867 19.127467 62.532267 31.381333 96.4224 38.997333 75.217067 16.896 155.477333 12.706133 230.4768-3.310933 57.160533-12.2112 113.7024-32.2688 160.200533-67.6736 43.626667-33.207467 77.7344-81.233067 87.095467-135.005867 9.365333 84.420267-47.2064 167.2832-124.910933 211.421867" fill="#27968B" p-id="20989"></path><path d="M351.1168 800.874667c-50.235733-6.314667-99.682133-19.9936-144.247467-42.56-53.303467-26.990933-92.8-71.552-113.365333-123.972267a231.9872 231.9872 0 0 1-11.767467-40.520533c-4.539733-23.381333-5.9904-45.8112-4.181333-67.1744 1.3696-15.978667 4.565333-31.368533 9.672533-46.1568a181.585067 181.585067 0 0 1 8.977067-21.4784c12.910933-26.090667 32.426667-50.065067 59.067733-71.748267 48.981333-39.872 110.062933-65.621333 173.4912-78.843733 8.7424-1.8176 17.557333-3.409067 26.410667-4.7488 23.125333 27.831467 82.090667 104.558933 94.08 176.4864 0 0 31.432533 137.1136-98.1376 320.7168" fill="#7BC2C3" p-id="20990"></path><path d="M369.450667 386.7648c-8.874667-15.709867-21.367467-28.706133-39.415467-35.669333-29.486933-11.3664-68.3776-6.843733-91.797333 15.304533-31.722667 29.986133-25.8048 81.348267 6.498133 108.322133 33.518933 27.9808 93.034667 38.058667 123.502933 0.226134 20.727467-25.745067 16.605867-60.936533 1.211734-88.183467" fill="#FFFFFE" p-id="20991"></path><path d="M245.064533 426.8928c-3.1872 38.967467 39.368533 67.310933 74.026667 51.0208 22.152533-10.410667 32.200533-30.865067 28.7488-55.406933-2.048-14.5536-12.279467-27.3024-25.344-34.039467-26.530133-13.6832-62.980267-5.115733-74.2144 24.375467a51.0464 51.0464 0 0 0-3.217067 14.050133" fill="#181916" p-id="20992"></path><path d="M300.5184 395.639467c-7.266133 3.255467-13.474133 11.264-13.380267 21.128533 0.029867 3.208533 1.8432 6.190933 4.1984 8.379733 5.8112 5.397333 15.266133 6.370133 22.058667 2.261334 6.784-4.100267 10.308267-12.936533 8.2176-20.586667-3.413333-12.484267-12.923733-14.839467-21.0944-11.182933" fill="#FFFFFE" p-id="20993"></path><path d="M536.635733 358.784c-39.351467 6.788267-63.872 29.5936-67.259733 70.468267-7.035733 84.868267 95.880533 101.085867 140.5824 41.728 37.9008-50.3296-15.658667-122.146133-73.322667-112.196267M625.681067 554.461867c-10.914133 1.8816-17.7152 8.209067-18.658134 19.5456-1.949867 23.543467 26.5984 28.040533 38.997334 11.575466 10.513067-13.960533-4.343467-33.877333-20.3392-31.121066" fill="#F0D754" p-id="20994"></path><path d="M615.458133 500.462933c-9.326933 1.608533-15.138133 7.0144-15.940266 16.704-1.668267 20.117333 22.724267 23.9616 33.322666 9.890134 8.977067-11.9296-3.716267-28.949333-17.3824-26.594134M696.405333 538.039467c-13.696 2.363733-22.229333 10.299733-23.406933 24.529066-2.449067 29.533867 33.3696 35.178667 48.925867 14.519467 13.192533-17.514667-5.448533-42.5088-25.514667-39.048533M553.770667 533.418667c-8.32 1.4336-13.499733 6.254933-14.2208 14.8992-1.4848 17.941333 20.2752 21.371733 29.725866 8.8192 8.0128-10.641067-3.310933-25.821867-15.5008-23.722667" fill="#7BC2C3" p-id="20995"></path><path d="M359.381333 570.862933c-5.589333 3.720533-12.5824 5.418667-18.978133 7.287467a223.296 223.296 0 0 1-20.096 4.859733c-13.358933 2.577067-27.063467 3.776-40.674133 3.84-77.713067 0.426667-151.2704-41.736533-192.405334-106.359466a181.585067 181.585067 0 0 1 8.977067-21.4784 219.869867 219.869867 0 0 0 22.673067 34.577066c26.491733 33.006933 61.952 58.218667 102.229333 71.470934a232.968533 232.968533 0 0 0 68.032 11.502933 241.041067 241.041067 0 0 0 35.592533-2.0096 217.655467 217.655467 0 0 0 18.2784-3.1872c5.2352-1.152 10.282667-2.850133 15.6416-3.208533 1.527467-0.098133 1.834667 1.966933 0.725334 2.705066M417.386667 393.5744s88.7808 128.938667 13.781333 238.528c0 0 48.004267-97.472-13.781333-238.528" fill="#1B887E" p-id="20996"></path><path d="M457.454933 575.829333c-2.568533 14.4-11.234133 27.618133-23.4112 35.720534-5.674667 3.776-12.117333 6.532267-16.955733 11.323733-4.288 4.245333-7.010133 9.783467-9.6512 15.2064-8.669867 17.796267-17.429333 35.869867-21.0176 55.338667-3.588267 19.4688-1.412267 40.849067 10.261333 56.836266 18.517333 25.344 55.04 30.1056 85.815467 23.906134 19.626667-3.9552 39.4624-12.113067 51.729067-27.9424 16.072533-20.736 15.607467-50.658133 5.6064-74.9184-12.484267-30.272-37.444267-52.983467-60.445867-75.298134-5.666133-5.499733-19.2384-12.757333-21.917867-20.151466l-0.0128-0.021334" fill="#CB5358" p-id="20997"></path><path d="M646.378667 492.855467c6.2976 13.730133 23.9104 22.088533 37.610666 15.722666 29.883733-13.9008 33.864533-60.522667-3.4304-64.196266-29.397333-2.8928-46.272 22.1056-34.180266 48.469333" fill="#F0D754" p-id="20998"></path></svg>